if (_typeface_js && _typeface_js.loadFace) _typeface_js.loadFace({"glyphs":{"0":{"ha":898,"x_min":139,"x_max":763,"o":"m 432 1215 l 475 1215 q 755 1006 694 1215 q 763 917 763 953 l 763 288 q 595 19 763 94 q 516 0 550 0 l 389 0 q 196 103 287 0 q 139 315 139 182 l 139 860 q 193 1107 139 1046 q 432 1215 274 1215 m 267 928 l 267 304 q 427 122 267 122 l 473 122 q 630 236 602 122 q 638 342 638 275 l 638 890 q 581 1061 638 1027 q 465 1090 533 1090 l 437 1090 q 267 928 267 1090 z "},"1":{"ha":679,"x_min":139,"x_max":541,"o":"m 144 1218 l 272 1218 q 511 1074 419 1218 q 541 917 541 1002 l 541 5 l 535 0 q 421 62 450 0 l 416 90 l 416 925 q 321 1085 416 1048 q 212 1096 291 1093 q 139 1204 139 1120 l 139 1213 l 144 1218 z "},"2":{"ha":893,"x_min":136,"x_max":758,"o":"m 142 1218 l 481 1218 q 728 1072 644 1218 q 758 930 758 1001 q 291 125 758 678 l 646 125 q 755 33 755 113 l 755 8 l 749 3 l 256 3 l 231 0 q 136 95 136 14 l 136 98 q 275 312 136 153 q 570 732 486 576 q 633 933 633 857 q 538 1085 633 1049 q 489 1093 509 1093 l 250 1093 q 136 1191 136 1093 l 136 1213 l 142 1218 z "},"3":{"ha":898,"x_min":140,"x_max":761,"o":"m 145 1215 l 476 1215 q 739 1047 666 1215 q 761 876 761 994 l 761 694 q 726 591 761 624 l 726 586 q 761 502 753 586 l 761 298 q 579 14 761 88 q 487 0 522 0 l 235 0 q 140 92 140 14 l 140 117 l 145 122 l 476 122 q 625 231 585 122 q 636 320 636 267 l 636 472 q 574 532 636 532 l 449 532 q 351 629 351 544 l 351 648 l 357 654 l 563 654 q 636 724 636 654 l 636 911 q 549 1074 636 1031 q 430 1093 515 1093 l 224 1093 q 142 1161 168 1093 l 140 1183 l 140 1210 l 145 1215 z "},"4":{"ha":901,"x_min":140,"x_max":761,"o":"m 145 1218 l 151 1218 q 264 1112 264 1218 l 264 887 l 262 830 q 330 697 262 747 q 463 670 369 670 l 631 670 l 636 675 l 636 1213 l 642 1218 l 661 1218 q 755 1153 729 1218 l 761 1104 l 761 5 l 755 0 q 650 54 669 0 q 636 109 636 75 l 636 548 l 441 548 q 167 703 241 548 q 140 822 140 761 l 140 1213 l 145 1218 z "},"5":{"ha":898,"x_min":140,"x_max":764,"o":"m 251 1215 l 755 1215 l 761 1210 l 761 1188 q 690 1096 761 1122 l 652 1090 l 267 1090 l 267 667 l 446 667 q 693 578 629 667 q 764 380 764 487 l 764 301 q 590 19 764 93 q 484 0 528 0 l 145 0 q 140 8 140 0 q 191 109 140 84 q 248 122 218 122 l 460 122 q 623 214 582 122 q 639 304 639 254 l 639 361 q 549 526 639 494 q 479 543 511 543 l 254 543 q 140 673 140 543 l 140 1096 q 251 1215 140 1215 z "},"6":{"ha":896,"x_min":140,"x_max":761,"o":"m 416 1215 l 755 1215 l 761 1210 l 761 1207 q 647 1090 761 1090 l 414 1090 q 273 987 309 1090 q 264 928 264 954 l 264 670 l 476 670 q 682 589 602 670 q 761 372 761 505 l 761 336 q 623 38 761 100 q 463 0 553 0 l 416 0 q 175 144 257 0 q 140 288 140 216 l 140 955 q 359 1210 140 1155 l 416 1215 m 264 545 l 264 277 q 357 133 264 177 q 452 122 388 122 q 636 309 636 122 l 636 369 q 552 529 636 486 q 468 545 515 545 l 264 545 z "},"7":{"ha":880,"x_min":132,"x_max":764,"o":"m 663 1218 q 764 1118 764 1204 q 362 214 764 1054 q 251 33 284 39 q 142 0 215 0 l 137 0 l 132 5 l 625 1093 l 264 1093 q 140 1215 140 1093 l 142 1218 l 663 1218 z "},"8":{"ha":901,"x_min":139,"x_max":763,"o":"m 416 1221 l 440 1218 l 462 1218 q 736 1063 661 1218 q 763 944 763 998 l 763 814 q 665 608 763 689 l 665 605 q 763 391 763 524 l 763 266 q 559 11 763 74 q 473 0 516 0 l 418 0 q 161 174 231 0 q 139 298 139 241 l 139 345 q 237 610 139 528 q 139 852 139 701 l 139 898 q 302 1196 139 1126 q 416 1221 351 1215 m 269 944 l 269 884 l 267 830 q 353 686 267 736 q 437 670 398 670 l 465 670 q 635 817 605 670 l 641 939 q 543 1080 641 1037 q 432 1096 504 1096 q 272 979 303 1096 l 269 944 m 269 401 l 269 331 l 267 282 q 326 155 267 208 q 429 122 377 122 l 465 122 q 627 233 585 122 q 641 393 641 269 q 568 521 641 471 q 435 548 519 548 q 277 450 315 548 q 269 401 269 421 z "},"9":{"ha":896,"x_min":139,"x_max":760,"o":"m 456 1215 l 459 1215 q 739 1036 669 1215 q 760 892 760 979 l 760 290 q 611 27 760 92 q 492 0 548 0 l 144 0 l 139 5 l 139 30 q 231 122 151 122 l 462 122 q 619 212 588 122 q 633 274 633 245 l 633 543 l 446 543 q 161 711 233 543 q 139 817 139 773 l 139 917 q 307 1191 139 1124 q 456 1215 369 1215 m 264 925 l 264 879 l 261 838 q 378 673 261 713 l 467 667 l 633 667 l 635 844 l 635 911 q 554 1077 635 1034 q 481 1090 517 1090 l 429 1090 q 310 1047 357 1090 q 264 925 264 1002 z "}," ":{"ha":345,"x_min":0,"x_max":0,"o":""},"!":{"ha":401,"x_min":140,"x_max":266,"o":"m 145 1219 l 159 1219 q 263 1145 237 1219 l 266 1114 l 266 291 l 260 286 l 236 286 q 140 387 155 286 l 140 1213 l 145 1219 m 145 203 l 164 203 q 266 107 266 193 l 266 5 l 260 0 l 241 0 q 140 104 152 0 l 140 197 l 145 203 z "},"\"":{"ha":592,"x_min":137,"x_max":460,"o":"m 142 1220 q 262 1117 262 1220 l 262 819 l 256 813 l 235 813 q 137 892 163 813 l 137 1215 l 142 1220 m 338 1220 l 340 1220 q 460 1106 460 1220 l 460 819 l 454 813 l 435 813 q 332 935 332 813 l 332 1215 l 338 1220 z "},"#":{"ha":1356,"x_min":0,"x_max":1221,"o":"m 510 1221 q 588 1125 578 1221 l 588 1120 q 531 840 588 1090 l 760 840 l 843 1221 l 876 1221 q 945 1156 921 1221 l 948 1122 l 948 1116 l 895 840 l 1059 840 q 1221 714 1221 840 l 1215 708 l 864 708 l 825 516 l 1080 516 q 1221 390 1221 516 l 1215 384 l 795 384 l 714 3 l 711 0 l 705 0 q 606 108 606 0 l 663 384 l 435 384 q 351 0 363 37 l 345 0 q 246 108 246 0 q 303 384 252 159 l 129 384 q 3 459 36 384 l 0 486 l 0 510 l 6 516 l 330 516 l 369 708 l 123 708 q 0 807 0 723 l 0 834 l 6 840 l 399 840 l 480 1219 l 483 1221 l 510 1221 m 504 708 l 465 516 l 693 516 l 693 519 l 729 708 l 504 708 z "},"$":{"ha":823,"x_min":140,"x_max":689,"o":"m 355 1221 l 374 1221 q 461 1133 453 1221 l 461 1063 l 684 1063 l 689 1058 l 689 1051 q 588 953 689 953 l 401 953 q 252 816 282 953 l 250 792 q 322 682 250 707 q 430 675 333 678 q 533 641 482 665 q 672 459 624 595 q 686 368 686 404 l 686 264 q 526 11 686 74 q 461 -4 486 -4 l 461 -162 l 456 -167 l 435 -167 q 353 -97 372 -167 l 351 -73 l 351 -4 l 144 -4 l 140 1 l 140 22 q 214 104 140 82 l 394 104 q 578 308 578 104 l 578 332 q 475 541 578 498 q 322 569 427 569 q 188 641 229 591 q 140 792 140 703 l 140 809 q 305 1048 140 988 l 351 1058 l 351 1217 l 355 1221 z "},"%":{"ha":1092,"x_min":137,"x_max":753,"o":"m 681 1219 q 753 1120 753 1183 q 673 934 753 1080 q 211 0 224 18 q 139 107 139 33 q 203 260 139 136 l 675 1216 l 678 1219 l 681 1219 m 142 1221 l 151 1221 q 328 1120 283 1221 l 333 1079 l 333 857 l 328 851 q 145 945 200 851 l 137 994 l 137 1216 l 142 1221 m 560 369 q 745 261 702 369 l 751 213 l 751 3 l 745 -2 l 740 -2 q 557 109 598 -2 q 552 168 552 131 l 552 363 q 560 369 552 369 z "},"&":{"ha":883,"x_min":139,"x_max":766,"o":"m 421 1219 l 761 1219 l 766 1213 l 766 1205 q 701 1101 766 1120 q 670 1095 690 1095 l 479 1095 q 271 950 305 1095 l 265 909 l 265 712 q 314 654 265 661 l 435 654 l 435 778 l 437 781 l 437 783 q 555 712 527 783 l 558 688 l 558 378 l 553 372 l 542 372 q 435 463 450 372 l 435 528 l 317 528 q 265 482 265 522 l 265 326 q 366 145 265 194 q 443 126 404 126 l 761 126 l 766 121 l 766 115 q 646 0 766 0 l 468 0 q 161 175 227 0 q 139 277 139 227 l 139 517 q 174 589 139 556 q 139 673 139 623 l 139 909 q 303 1194 139 1122 q 421 1219 366 1219 z "},"'":{"ha":395,"x_min":136,"x_max":261,"o":"m 142 1218 l 147 1218 q 256 1156 232 1218 l 261 1123 l 261 817 l 256 811 l 234 811 q 136 911 149 811 l 136 1213 l 142 1218 z "},"(":{"ha":659,"x_min":140,"x_max":527,"o":"m 414 1219 l 519 1219 l 527 1211 l 527 1202 q 422 1093 527 1111 q 307 1032 376 1093 q 266 909 266 982 l 266 304 q 428 123 266 159 q 513 71 473 123 q 527 16 527 47 l 527 5 l 522 0 l 397 0 q 164 168 233 0 q 140 291 140 230 l 140 925 q 250 1169 140 1074 q 414 1219 315 1219 z "},")":{"ha":667,"x_min":139,"x_max":526,"o":"m 144 1219 l 252 1219 q 507 1032 443 1219 q 526 901 526 966 l 526 315 q 364 19 526 98 q 265 0 315 0 l 144 0 l 139 5 l 139 33 q 213 118 139 87 q 342 170 302 134 q 399 340 399 217 l 399 884 q 290 1079 399 1036 l 183 1112 q 139 1192 139 1147 l 139 1213 l 144 1219 z "},"*":{"ha":898,"x_min":136,"x_max":760,"o":"m 394 1216 l 397 1216 q 489 1170 465 1216 q 508 1099 508 1135 l 508 1048 l 627 1164 q 668 1099 668 1131 l 668 1078 q 595 964 668 1034 l 597 961 l 600 964 l 630 964 q 758 893 728 964 l 760 874 l 760 850 l 755 844 l 595 844 q 668 730 668 772 l 668 709 q 627 644 668 675 l 625 644 l 508 758 l 508 597 l 503 592 l 484 592 q 394 673 416 592 l 389 720 l 389 749 l 391 752 l 391 755 l 389 758 l 386 758 l 272 644 l 269 644 q 229 717 229 674 l 229 720 q 304 844 229 775 l 253 844 q 142 909 173 844 l 136 956 l 136 958 l 142 964 l 302 964 q 229 1078 229 1036 l 229 1088 q 272 1164 229 1133 l 389 1050 l 389 1211 l 394 1216 z "},"+":{"ha":896,"x_min":137,"x_max":761,"o":"m 395 843 l 397 843 q 490 797 465 843 q 509 726 509 762 l 509 591 l 631 591 q 758 520 729 591 l 761 501 l 761 477 l 755 471 l 509 471 l 509 224 l 503 219 l 484 219 q 395 300 417 219 l 389 347 l 389 471 l 254 471 q 142 536 174 471 l 137 583 l 137 585 l 142 591 l 389 591 l 389 838 l 395 843 z "},",":{"ha":338,"x_min":35,"x_max":219,"o":"m 121 104 q 219 25 219 92 l 219 9 q 124 -119 219 -94 l 75 -124 q 35 -108 35 -121 l 35 -92 q 75 -70 39 -81 q 94 6 94 -43 l 94 74 q 121 104 94 104 z "},"-":{"ha":893,"x_min":137,"x_max":755,"o":"m 142 590 l 655 590 q 755 514 732 590 l 755 473 l 750 468 l 240 468 q 142 530 169 468 l 137 568 l 137 585 l 142 590 z "},".":{"ha":393,"x_min":139,"x_max":264,"o":"m 169 125 l 231 125 q 264 98 264 122 l 264 27 q 237 0 260 0 l 166 0 q 139 33 142 0 l 139 95 q 169 125 144 125 z "},"/":{"ha":766,"x_min":137,"x_max":636,"o":"m 568 1120 q 636 1028 636 1084 l 636 1023 q 541 781 636 994 q 208 0 213 3 q 137 98 137 35 q 227 326 137 133 l 563 1120 l 568 1120 z "},":":{"ha":395,"x_min":137,"x_max":262,"o":"m 142 676 l 148 676 q 256 611 233 676 l 262 578 l 262 478 l 256 473 l 251 473 q 140 554 158 473 l 137 581 l 137 671 l 142 676 m 142 313 l 164 313 q 262 237 236 313 l 262 117 l 256 112 l 240 112 q 137 215 137 122 l 137 307 l 142 313 z "},";":{"ha":408,"x_min":97,"x_max":265,"o":"m 143 673 l 168 673 q 262 578 262 661 l 262 478 l 257 473 l 235 473 q 143 543 169 473 l 138 581 l 138 668 l 143 673 m 146 153 l 168 153 q 262 79 249 153 l 265 66 q 189 -62 265 -31 q 124 -73 157 -73 l 102 -73 l 100 -70 l 97 -70 q 111 -24 97 -24 q 140 77 137 -24 l 140 147 l 146 153 z "},"<":{"ha":688,"x_min":139,"x_max":505,"o":"m 445 846 q 505 759 505 812 l 505 756 q 448 653 505 717 q 265 419 265 426 q 503 111 503 128 l 505 87 l 505 79 q 445 0 505 35 l 442 0 l 139 372 l 139 474 l 445 846 z "},"=":{"ha":688,"x_min":139,"x_max":760,"o":"m 144 663 l 649 663 q 760 573 741 663 l 760 549 l 755 543 l 286 543 q 142 614 161 543 l 139 627 l 139 657 l 144 663 m 144 416 l 644 416 q 760 318 760 405 l 760 302 l 755 296 l 267 296 q 147 351 182 296 l 139 380 l 139 410 l 144 416 z "},">":{"ha":637,"x_min":140,"x_max":505,"o":"m 200 846 l 203 846 l 505 475 l 505 370 q 200 0 224 24 q 140 92 140 39 q 232 234 140 129 l 381 425 q 145 730 149 711 l 140 759 q 200 846 140 808 z "},"?":{"ha":876,"x_min":137,"x_max":741,"o":"m 459 1219 q 686 1111 589 1219 q 741 889 741 1032 l 741 842 q 517 546 741 614 q 490 538 490 546 l 490 277 l 485 272 l 480 272 q 372 348 399 272 l 369 377 l 369 543 l 366 585 q 430 667 366 644 q 604 781 558 667 q 620 878 620 823 l 620 897 q 398 1097 620 1097 l 227 1097 q 137 1168 161 1097 l 137 1211 l 142 1216 l 404 1216 l 459 1219 m 377 195 l 404 195 q 493 103 480 195 l 493 5 l 488 0 l 475 0 q 382 56 407 0 q 372 98 372 75 l 372 190 l 377 195 z "},"@":{"ha":1266,"x_min":137,"x_max":1122,"o":"m 408 1034 l 945 1034 q 1108 911 1059 1034 q 1122 789 1122 878 l 1122 119 q 1010 0 1122 0 l 918 0 q 831 52 857 0 l 829 60 l 826 60 q 669 3 746 3 l 327 3 l 321 8 l 321 534 q 468 811 321 751 q 609 846 536 846 l 932 846 l 937 841 l 937 187 q 981 125 937 125 l 1002 125 l 1008 130 l 1008 814 q 910 909 1008 909 l 435 909 q 270 808 316 909 q 259 724 259 771 l 259 8 l 254 3 l 240 3 q 137 84 158 3 l 137 743 q 305 1015 137 935 q 408 1034 361 1034 m 449 548 l 449 125 l 625 125 q 810 241 758 125 q 821 353 821 274 l 821 719 l 815 724 l 658 724 q 463 621 505 724 q 449 548 449 585 z "},"A":{"ha":880,"x_min":140,"x_max":767,"o":"m 145 1219 l 501 1219 q 756 1016 692 1219 q 767 895 767 969 l 767 5 l 762 0 l 745 0 q 644 77 663 0 q 638 106 638 87 l 638 452 l 269 452 l 263 446 l 263 5 q 255 0 263 0 q 148 58 176 0 q 140 104 140 83 l 140 1213 l 145 1219 m 263 1095 l 263 581 l 269 575 l 638 575 l 638 942 q 564 1076 638 1039 q 474 1095 528 1095 l 263 1095 z "},"B":{"ha":893,"x_min":137,"x_max":762,"o":"m 142 1221 l 478 1221 q 739 1061 654 1221 q 762 954 762 1002 l 762 788 q 666 611 762 685 q 762 428 762 551 l 762 300 q 688 90 762 162 q 486 0 604 0 l 142 0 l 137 5 l 137 1216 l 142 1221 m 265 1099 l 265 665 l 423 665 q 631 755 582 665 l 636 791 l 636 938 q 445 1099 636 1099 l 265 1099 m 262 543 l 262 128 l 268 123 l 456 123 q 631 227 589 123 l 636 262 l 636 395 q 437 543 636 543 l 262 543 z "},"C":{"ha":880,"x_min":137,"x_max":759,"o":"m 427 1219 l 658 1219 q 753 1151 726 1219 q 759 1116 759 1139 l 759 1102 l 753 1097 l 449 1097 q 262 937 262 1097 l 262 277 q 346 138 262 175 q 425 125 377 125 l 655 125 q 756 43 739 125 l 756 5 l 751 0 l 416 0 q 151 184 220 0 q 137 277 137 219 l 137 950 q 270 1183 137 1101 q 427 1219 336 1219 z "},"D":{"ha":896,"x_min":139,"x_max":762,"o":"m 144 1219 l 471 1219 q 737 1058 666 1219 q 762 928 762 996 l 762 310 q 596 22 762 87 q 484 0 537 0 l 144 0 l 139 5 l 139 1213 l 144 1219 m 264 1093 l 264 123 l 463 123 q 623 220 587 123 q 637 348 637 267 l 637 860 q 566 1072 637 1041 q 460 1093 528 1093 l 264 1093 z "},"E":{"ha":861,"x_min":136,"x_max":761,"o":"m 417 1221 l 649 1221 q 755 1156 726 1221 l 761 1109 l 761 1104 l 755 1099 l 466 1099 q 275 1003 296 1099 q 262 930 264 996 l 262 673 l 583 673 q 679 578 679 661 l 679 556 l 673 551 l 262 551 l 262 283 q 398 125 262 146 l 455 123 l 660 123 q 758 30 758 109 l 758 5 l 753 0 l 412 0 q 180 123 266 0 q 136 281 136 199 l 136 943 q 305 1202 136 1122 q 417 1221 357 1221 z "},"F":{"ha":865,"x_min":136,"x_max":758,"o":"m 408 1219 l 753 1219 l 758 1213 l 758 1208 q 638 1094 758 1094 l 418 1094 q 275 1010 314 1094 q 261 931 261 979 l 261 575 l 671 575 l 676 570 l 676 559 q 614 458 676 486 l 581 453 l 261 453 l 261 5 q 253 0 261 0 q 144 60 170 0 q 136 106 136 85 l 136 947 q 345 1213 136 1143 l 408 1219 z "},"G":{"ha":880,"x_min":140,"x_max":762,"o":"m 427 1219 l 753 1219 l 759 1213 l 759 1181 q 685 1099 759 1126 l 663 1097 l 468 1097 q 289 1029 323 1097 q 264 915 264 987 l 264 293 q 349 141 264 182 q 430 125 389 125 l 463 125 q 623 217 585 125 q 636 290 636 248 l 636 418 q 614 453 636 453 l 454 453 q 357 551 357 465 l 357 570 l 362 575 l 663 575 q 762 467 751 575 l 762 5 l 756 0 q 644 52 674 0 q 500 3 581 3 l 419 3 q 151 203 212 3 q 140 298 140 248 l 140 926 q 319 1202 140 1133 q 427 1219 377 1219 z "},"H":{"ha":893,"x_min":137,"x_max":758,"o":"m 142 1218 l 159 1218 q 262 1120 262 1204 l 262 773 l 267 768 l 631 768 l 631 1213 l 636 1218 l 652 1218 q 758 1112 758 1206 l 758 5 l 753 0 q 631 117 631 0 l 631 646 l 262 646 l 262 5 l 256 0 q 142 68 167 0 l 137 90 l 137 1213 l 142 1218 z "},"I":{"ha":395,"x_min":137,"x_max":262,"o":"m 142 1218 l 159 1218 q 262 1139 234 1218 l 262 5 l 256 0 q 142 65 173 0 l 137 106 l 137 1213 l 142 1218 z "},"J":{"ha":759,"x_min":0,"x_max":621,"o":"m 253 1215 l 350 1215 l 576 1215 q 621 1147 621 1197 l 621 331 q 518 60 621 128 q 350 0 445 0 l 5 0 l 0 5 l 0 27 q 62 114 0 89 q 106 122 80 122 l 331 122 q 496 307 496 122 l 496 1072 q 461 1093 496 1093 l 345 1093 q 255 1169 278 1093 l 252 1194 l 252 1210 l 253 1215 z "},"K":{"ha":896,"x_min":137,"x_max":758,"o":"m 142 1215 l 164 1215 q 254 1156 228 1215 q 262 1101 262 1136 l 262 765 l 414 765 q 574 808 534 765 q 633 958 633 869 l 633 1210 l 639 1215 l 661 1215 q 758 1107 748 1215 l 758 958 q 680 719 758 801 q 758 507 758 653 l 758 5 l 753 0 l 728 0 q 633 98 645 0 l 633 534 q 568 635 633 609 q 519 643 539 643 l 262 643 l 262 14 l 256 8 l 232 8 q 137 95 158 8 l 137 1210 l 142 1215 z "},"L":{"ha":813,"x_min":139,"x_max":760,"o":"m 144 1215 l 166 1215 q 256 1156 229 1215 q 264 1112 264 1138 l 264 309 q 359 130 264 161 l 427 122 l 665 122 q 755 49 734 122 q 760 14 760 37 l 760 5 l 755 0 l 408 0 q 153 187 224 0 q 139 277 139 241 l 139 1210 l 144 1215 z "},"M":{"ha":1383,"x_min":136,"x_max":1251,"o":"m 142 1218 l 144 1218 q 248 1172 216 1218 q 446 1218 321 1218 l 467 1218 q 695 1120 610 1218 q 893 1218 783 1218 l 980 1218 q 1175 1139 1093 1218 q 1251 936 1251 1061 l 1251 8 l 1246 3 l 1230 3 q 1126 106 1126 15 l 1126 917 q 1026 1085 1126 1061 q 920 1096 981 1096 q 766 990 800 1096 q 755 890 755 952 l 755 8 l 749 3 l 736 3 q 630 100 630 14 l 630 949 q 519 1088 630 1055 l 467 1093 l 418 1093 q 264 963 284 1093 l 261 928 l 261 5 q 253 0 261 0 q 136 76 161 0 l 136 1213 l 142 1218 z "},"N":{"ha":898,"x_min":139,"x_max":760,"o":"m 161 1215 l 169 1215 q 256 1169 229 1215 q 437 1215 317 1215 l 475 1215 q 747 1028 682 1215 q 760 892 760 979 l 760 5 l 755 0 l 733 0 q 635 92 635 14 l 635 884 q 573 1066 635 1029 q 432 1093 520 1093 q 264 911 264 1093 l 264 5 l 258 0 l 237 0 q 139 81 162 0 l 139 1207 q 161 1215 141 1215 z "},"O":{"ha":898,"x_min":139,"x_max":763,"o":"m 429 1215 l 475 1215 q 755 1006 694 1215 q 763 917 763 953 l 763 293 q 554 5 763 67 l 516 0 l 394 0 q 177 133 265 0 q 139 315 139 205 l 139 857 q 201 1118 139 1055 q 429 1215 285 1215 m 267 925 l 267 298 q 429 122 267 122 l 473 122 q 619 206 585 122 q 638 334 638 243 l 638 895 q 570 1069 638 1034 q 465 1090 517 1090 l 437 1090 q 267 925 267 1090 z "},"P":{"ha":896,"x_min":139,"x_max":760,"o":"m 144 1215 l 166 1215 q 256 1164 222 1215 q 397 1215 319 1215 l 475 1215 q 749 1015 688 1215 q 760 925 760 966 l 760 681 q 592 391 760 456 q 462 369 528 369 l 264 369 l 264 5 l 258 0 l 226 0 q 139 103 139 18 l 139 1210 l 144 1215 m 264 491 l 459 491 q 622 589 585 491 q 633 651 633 630 l 633 947 q 535 1085 633 1043 q 462 1093 508 1093 q 264 933 264 1093 l 264 491 z "},"Q":{"ha":950,"x_min":139,"x_max":840,"o":"m 425 1219 l 476 1219 q 750 1027 685 1219 q 764 885 764 969 l 764 312 q 655 56 764 135 l 655 54 q 769 40 693 40 q 840 -41 840 10 l 840 -77 l 835 -82 l 755 -82 q 517 2 591 -82 l 389 2 q 210 89 298 2 q 139 293 139 172 l 139 918 q 310 1200 139 1132 q 425 1219 370 1219 m 264 882 l 264 353 q 329 152 264 183 q 427 124 366 124 l 449 124 q 441 206 441 173 l 441 315 q 471 323 441 323 l 487 323 q 568 217 568 309 l 571 152 l 574 152 q 636 298 636 199 l 636 931 q 471 1095 636 1095 l 435 1095 q 275 1002 311 1095 q 264 882 264 956 z "},"R":{"ha":896,"x_min":139,"x_max":760,"o":"m 144 1215 l 166 1215 q 256 1164 222 1215 q 394 1215 319 1215 l 475 1215 q 739 1047 669 1215 q 760 920 760 987 l 760 689 q 663 434 760 500 l 663 431 q 760 176 760 351 l 760 5 l 755 0 l 739 0 q 635 81 656 0 l 635 203 q 538 358 635 321 q 465 369 501 369 l 264 369 l 264 5 l 258 0 l 226 0 q 144 68 172 0 q 139 98 139 79 l 139 1210 l 144 1215 m 264 909 l 264 494 l 486 494 q 630 624 600 494 l 633 659 l 633 947 q 535 1085 633 1042 q 465 1093 503 1093 q 275 998 304 1093 q 264 909 264 962 z "},"S":{"ha":880,"x_min":136,"x_max":758,"o":"m 418 1218 l 752 1218 l 758 1213 l 758 1204 q 644 1093 758 1093 l 424 1093 q 261 922 261 1093 q 345 779 261 809 q 489 762 370 772 q 684 643 618 729 q 755 429 755 532 l 755 285 q 638 52 755 134 q 475 0 552 0 l 378 3 l 142 3 l 136 8 l 136 30 q 212 122 136 99 l 239 125 l 446 125 q 622 222 587 125 q 633 304 633 272 l 633 396 q 516 621 633 575 q 337 651 489 641 q 177 757 222 684 q 136 903 136 830 l 136 933 q 359 1213 136 1159 q 418 1218 382 1218 z "},"T":{"ha":880,"x_min":139,"x_max":760,"o":"m 755 1215 l 760 1210 l 760 1199 q 690 1096 760 1119 q 630 1090 667 1090 l 516 1090 l 516 5 l 511 0 l 489 0 q 394 71 414 0 l 391 95 l 391 1090 l 139 1090 l 139 1109 q 229 1215 139 1195 l 755 1215 z "},"U":{"ha":893,"x_min":134,"x_max":758,"o":"m 145 1218 q 254 1158 229 1218 q 262 1115 262 1141 l 262 298 q 357 136 262 168 q 425 125 392 125 l 452 125 q 631 252 604 125 l 633 285 l 633 1213 l 639 1218 l 661 1218 q 758 1109 748 1218 l 758 320 q 438 0 758 0 q 159 165 231 0 q 134 279 142 202 l 137 320 l 137 1213 q 145 1218 137 1218 z "},"V":{"ha":898,"x_min":136,"x_max":768,"o":"m 166 1215 q 288 1082 265 1215 l 451 301 l 454 301 q 630 1145 622 1127 q 733 1215 667 1215 l 763 1215 l 766 1213 l 768 1213 l 511 3 l 508 0 l 489 0 q 378 76 411 0 l 136 1213 l 139 1215 l 166 1215 z "},"W":{"ha":1385,"x_min":140,"x_max":1257,"o":"m 145 1215 l 151 1215 q 267 1115 267 1215 l 267 282 q 446 122 267 122 l 449 122 q 625 214 588 122 q 636 271 636 250 l 636 1131 l 642 1137 l 658 1137 q 761 1058 734 1137 l 764 1012 l 764 269 q 883 127 764 159 l 937 122 l 943 122 q 1135 296 1135 122 l 1135 1123 q 1244 1215 1135 1204 l 1252 1215 l 1257 1210 l 1257 293 q 1092 22 1257 93 q 972 0 1033 0 l 899 0 q 699 98 797 0 q 500 0 598 0 l 427 0 q 161 171 231 0 q 140 298 140 226 l 140 1210 l 145 1215 z "},"X":{"ha":998,"x_min":139,"x_max":863,"o":"m 144 1218 l 155 1218 q 267 1164 238 1218 q 277 1120 277 1139 l 277 863 q 367 694 277 731 q 454 678 419 678 l 538 678 q 711 776 668 678 l 725 836 l 722 890 l 722 1213 l 728 1218 l 758 1218 q 861 1139 832 1218 l 863 1109 l 863 857 q 749 618 863 694 l 749 616 q 863 401 863 520 l 863 5 l 858 0 l 852 0 q 722 111 722 0 l 722 391 q 595 545 722 508 l 530 553 l 456 553 q 280 426 319 553 l 277 385 l 277 5 l 272 0 l 267 0 q 147 62 174 0 q 139 98 139 76 l 139 429 q 253 616 139 524 q 139 817 139 699 l 139 1213 l 144 1218 z "},"Y":{"ha":896,"x_min":139,"x_max":760,"o":"m 144 1215 q 245 1172 221 1215 q 264 1085 264 1147 l 264 662 q 391 494 264 526 l 424 491 q 635 651 635 491 l 635 1210 l 641 1215 l 657 1215 q 755 1142 732 1215 q 760 1107 760 1130 l 760 304 q 551 5 760 68 l 505 0 l 231 0 q 139 98 152 0 l 139 117 l 144 122 l 454 122 q 635 298 635 122 l 635 412 q 462 369 561 369 l 437 369 q 155 548 225 369 q 139 643 139 600 l 139 1210 l 144 1215 z "},"Z":{"ha":880,"x_min":140,"x_max":761,"o":"m 145 1215 l 652 1215 q 758 1128 741 1215 l 758 1109 q 281 122 758 1042 l 755 122 l 761 117 l 761 109 q 666 0 750 0 l 243 0 q 145 71 176 0 q 140 106 140 83 l 140 109 q 620 1093 140 186 l 259 1093 l 235 1090 q 140 1183 140 1105 l 140 1210 l 145 1215 z "},"[":{"ha":543,"x_min":139,"x_max":407,"o":"m 229 1217 l 401 1217 l 407 1211 l 407 1190 q 309 1094 407 1106 l 271 1094 l 264 1088 l 264 125 l 292 125 q 401 68 377 125 l 407 41 l 407 5 l 401 0 l 245 0 q 139 117 139 0 l 139 1105 q 194 1208 139 1179 l 229 1217 z "},"\\":{"ha":768,"x_min":140,"x_max":639,"o":"m 213 1120 q 639 117 606 204 l 639 95 q 568 0 639 33 q 142 1006 156 962 l 140 1025 q 213 1120 140 1089 z "},"]":{"ha":543,"x_min":139,"x_max":408,"o":"m 144 1219 l 311 1219 q 405 1147 378 1219 l 408 1120 l 408 104 q 317 0 408 17 l 147 0 q 139 27 139 0 q 213 123 139 100 l 252 126 l 281 126 l 281 1095 l 240 1095 q 139 1186 158 1095 l 139 1213 l 144 1219 z "},"^":{"ha":913,"x_min":137,"x_max":780,"o":"m 408 1215 l 506 1215 q 734 884 527 1194 l 780 817 q 720 806 749 806 q 566 917 617 806 l 457 1074 l 454 1074 q 292 836 344 898 q 194 806 248 806 l 137 814 q 251 987 137 824 q 408 1215 378 1179 z "},"_":{"ha":617,"x_min":-1,"x_max":618,"o":"m 5 -62 l 528 -62 q 618 -131 618 -79 l 618 -157 l 612 -162 l 97 -162 q 2 -102 26 -162 l -1 -80 l -1 -67 l 5 -62 z "},"`":{"ha":694,"x_min":144,"x_max":456,"o":"m 456 732 l 410 732 l 186 869 q 154 896 165 882 q 144 924 144 909 q 158 959 144 945 q 194 972 172 972 q 221 964 208 972 q 259 932 235 956 l 456 732 z "},"a":{"ha":880,"x_min":136,"x_max":757,"o":"m 420 846 l 751 846 l 757 841 l 757 5 l 751 0 l 730 0 q 640 52 673 0 q 472 0 571 0 l 141 0 l 136 5 l 136 575 q 315 830 136 766 q 420 846 362 846 m 260 559 l 260 127 l 266 122 l 423 122 q 618 220 588 122 q 632 307 632 264 l 632 722 l 434 722 q 260 559 260 722 z "},"b":{"ha":880,"x_min":140,"x_max":758,"o":"m 145 1215 l 167 1215 q 264 1137 244 1215 l 264 1118 l 262 846 l 264 844 l 492 844 q 736 684 649 844 q 758 578 758 618 l 758 258 q 617 33 758 127 q 492 0 565 0 l 430 0 q 254 49 317 0 q 153 0 216 0 l 145 0 l 140 5 l 140 1210 l 145 1215 m 259 722 l 262 694 l 262 347 q 335 144 262 174 q 454 122 380 122 l 484 122 q 620 217 580 122 q 636 328 636 254 l 633 331 l 636 345 l 636 537 q 541 708 636 673 q 449 722 500 722 l 259 722 z "},"c":{"ha":850,"x_min":136,"x_max":758,"o":"m 465 846 l 630 846 q 758 741 758 846 l 758 727 l 752 722 l 421 722 q 277 637 315 722 q 261 567 261 602 l 261 296 q 353 136 261 170 q 489 122 386 122 l 660 122 q 755 30 755 109 l 755 5 l 749 0 l 413 0 q 150 190 216 0 q 136 293 136 246 l 136 567 q 277 814 136 728 q 465 846 339 846 z "},"d":{"ha":846,"x_min":142,"x_max":760,"o":"m 733 1218 l 755 1218 l 760 1213 l 760 8 l 755 3 l 736 3 q 649 49 677 3 l 646 49 q 446 0 570 0 q 163 168 240 0 q 142 298 142 227 l 142 572 q 253 798 142 711 q 410 846 326 846 l 633 846 l 638 852 l 638 1139 q 733 1218 652 1218 m 267 567 l 267 320 q 318 160 267 193 q 448 125 368 125 q 616 201 574 125 q 638 361 638 241 l 638 724 l 446 724 q 267 567 267 724 z "},"e":{"ha":880,"x_min":139,"x_max":758,"o":"m 448 846 q 703 735 637 846 q 758 570 758 660 l 758 453 q 690 374 758 401 q 660 369 679 369 l 264 369 l 264 266 q 367 130 264 172 q 456 122 404 122 l 673 122 q 758 30 758 104 l 758 5 l 752 0 l 443 0 q 158 168 222 0 q 139 277 139 214 l 139 543 q 315 827 139 755 q 448 846 370 846 m 264 526 l 264 491 l 619 491 q 635 507 635 491 l 635 556 q 541 711 635 670 q 473 722 513 722 l 446 722 q 272 627 305 722 q 264 526 264 579 z "},"f":{"ha":610,"x_min":140,"x_max":541,"o":"m 400 1218 l 536 1218 l 541 1213 l 541 1183 q 444 1096 541 1122 q 281 1012 317 1096 q 264 914 264 969 l 264 773 l 270 768 l 487 768 l 492 762 l 492 749 q 411 646 492 667 l 264 646 l 267 469 l 267 5 l 262 0 q 148 65 170 0 q 140 109 140 83 l 140 922 q 351 1213 140 1153 l 400 1218 z "},"g":{"ha":856,"x_min":137,"x_max":724,"o":"m 411 841 l 429 841 q 616 798 544 841 q 695 841 644 841 l 718 841 l 724 836 l 724 -9 q 511 -286 724 -237 l 454 -294 l 178 -291 l 142 -291 l 137 -286 l 137 -258 q 219 -176 137 -200 l 467 -174 q 585 -104 544 -174 q 606 -1 606 -66 l 606 85 q 441 42 529 42 q 163 193 224 42 q 137 329 137 256 l 137 574 q 314 825 137 767 q 411 841 355 841 m 255 554 l 255 336 q 345 170 255 199 q 427 159 385 159 l 450 159 q 606 347 606 159 l 606 583 q 509 715 606 681 q 414 726 463 726 q 255 554 255 726 z "},"h":{"ha":893,"x_min":139,"x_max":760,"o":"m 144 1218 l 166 1218 q 258 1150 231 1218 l 264 1109 l 264 806 l 267 806 q 429 846 332 846 l 456 846 q 736 689 666 846 q 760 553 760 626 l 760 5 q 752 0 760 0 q 644 60 669 0 q 635 106 635 85 l 635 543 q 551 708 635 673 q 475 724 529 719 q 307 678 332 724 q 264 559 264 637 l 264 5 q 256 0 264 0 q 144 65 170 0 l 139 100 l 139 1213 l 144 1218 z "},"i":{"ha":398,"x_min":137,"x_max":262,"o":"m 142 1206 l 178 1206 q 254 1149 222 1206 q 262 1111 262 1131 l 262 1010 l 256 1005 l 248 1005 q 148 1062 171 1005 q 137 1108 137 1087 l 137 1200 l 142 1206 m 142 846 l 167 846 q 256 779 233 846 q 262 743 262 766 l 262 5 l 256 0 l 248 0 q 148 57 171 0 q 137 103 137 79 l 137 841 l 142 846 z "},"j":{"ha":543,"x_min":0,"x_max":412,"o":"m 380 1209 l 407 1209 l 412 1204 l 412 1117 q 342 1014 412 1036 q 312 1008 331 1008 l 293 1008 l 288 1014 l 288 1122 q 358 1206 288 1179 l 380 1209 m 410 868 l 412 865 l 412 -40 q 225 -285 412 -213 q 155 -298 180 -298 l 5 -298 l 0 -292 l 0 -274 q 71 -184 0 -210 l 182 -172 q 290 -1 290 -142 l 290 776 q 399 868 290 857 l 410 868 z "},"k":{"ha":896,"x_min":137,"x_max":758,"o":"m 142 1210 q 262 1096 262 1210 l 262 494 l 416 494 q 609 578 587 494 q 633 722 633 616 l 633 751 q 709 844 633 817 l 750 846 l 753 846 l 758 841 l 758 681 q 658 434 758 507 l 658 431 q 758 176 758 347 l 758 5 l 753 0 l 739 0 q 639 62 668 0 l 633 95 l 633 171 q 538 355 633 329 q 446 369 504 369 l 262 369 l 262 5 l 256 0 l 251 0 q 151 49 177 0 q 137 98 137 73 l 137 1204 l 142 1210 z "},"l":{"ha":610,"x_min":137,"x_max":538,"o":"m 161 1215 q 259 1145 236 1215 l 264 1107 l 264 288 q 354 133 264 176 q 473 119 387 122 q 538 22 538 91 l 538 5 l 533 0 l 414 0 q 148 209 210 0 q 137 304 137 266 l 140 1213 l 142 1215 l 161 1215 z "},"m":{"ha":1390,"x_min":136,"x_max":1257,"o":"m 142 846 l 150 846 q 250 798 227 846 l 253 798 q 418 846 321 846 l 456 846 q 698 749 621 846 q 937 846 770 846 q 1135 800 1086 846 q 1243 643 1210 755 l 1257 564 l 1254 510 l 1254 5 l 1249 0 l 1243 0 q 1140 60 1166 0 q 1132 106 1132 85 l 1132 518 q 969 722 1132 722 l 918 722 q 771 635 805 722 q 758 537 758 596 l 758 5 l 752 0 l 730 0 q 633 103 646 0 l 633 545 q 473 722 633 722 l 421 722 q 275 635 312 722 q 261 567 261 593 l 261 5 l 256 0 l 248 0 q 147 57 172 0 q 136 103 136 82 l 136 841 l 142 846 z "},"n":{"ha":890,"x_min":137,"x_max":758,"o":"m 170 846 q 251 800 228 846 l 256 800 q 463 846 310 846 q 742 667 677 846 q 758 526 758 612 l 758 5 l 753 0 l 739 0 q 633 92 633 12 l 633 505 q 571 694 633 667 q 454 722 528 722 l 414 722 q 267 605 299 722 l 262 548 l 262 5 l 256 0 l 243 0 q 142 65 168 0 q 137 95 137 76 l 137 838 q 170 846 137 845 z "},"o":{"ha":898,"x_min":137,"x_max":761,"o":"m 446 846 l 449 846 q 761 534 761 846 l 761 290 q 576 14 761 86 q 500 0 536 0 l 392 0 q 189 111 281 0 q 137 277 137 205 l 140 323 l 140 570 q 224 773 140 690 q 446 846 300 846 m 264 548 l 264 293 q 441 122 264 122 l 465 122 q 623 212 583 122 q 636 336 636 257 l 636 510 q 566 697 636 674 q 449 722 526 722 q 273 621 300 722 q 264 548 264 589 z "},"p":{"ha":863,"x_min":139,"x_max":730,"o":"m 144 848 l 159 848 q 250 800 219 848 q 385 848 313 848 l 449 848 q 656 771 597 848 q 730 567 730 696 l 730 345 q 576 66 730 126 q 454 42 517 42 l 258 42 l 258 -288 l 253 -294 l 229 -294 q 139 -198 153 -294 l 139 843 l 144 848 m 258 554 l 258 166 l 263 161 l 457 159 q 607 280 576 159 l 609 316 l 609 593 q 522 722 609 680 q 444 732 507 730 q 276 660 314 732 q 258 554 258 621 z "},"q":{"ha":858,"x_min":134,"x_max":722,"o":"m 426 846 q 614 802 540 846 l 616 802 q 699 844 645 844 l 718 844 l 722 839 l 722 -288 l 718 -294 l 691 -294 q 606 -219 606 -281 l 606 37 l 601 41 l 403 41 q 140 248 194 41 l 134 310 l 134 557 q 299 826 134 762 q 426 846 355 846 m 253 550 l 253 307 q 366 163 253 189 l 446 158 l 601 158 l 606 163 l 606 511 q 539 702 606 680 q 429 728 504 728 q 260 630 286 728 q 253 550 253 590 z "},"r":{"ha":577,"x_min":139,"x_max":481,"o":"m 144 846 l 158 846 q 250 798 218 846 l 256 798 q 402 844 325 844 l 475 844 l 481 838 l 481 819 q 443 741 481 774 q 351 711 433 731 q 267 548 267 669 l 267 5 l 261 0 l 239 0 q 139 109 147 0 l 139 841 l 144 846 z "},"s":{"ha":880,"x_min":130,"x_max":751,"o":"m 398 846 l 428 844 l 694 846 l 745 846 l 751 841 l 751 833 q 672 724 751 741 l 648 722 l 404 722 q 257 629 312 722 l 254 608 q 347 505 254 555 q 515 491 393 491 q 677 407 623 466 q 748 244 748 326 q 591 24 748 111 q 488 0 540 0 l 135 0 l 130 5 l 130 27 q 230 122 130 108 l 439 122 q 618 222 581 122 l 621 236 l 621 252 q 536 355 621 307 q 357 374 467 374 q 211 445 276 393 q 138 600 138 527 l 138 618 q 268 811 138 725 q 398 846 343 846 z "},"t":{"ha":589,"x_min":137,"x_max":528,"o":"m 142 1215 l 161 1215 q 254 1158 227 1215 q 262 1115 262 1141 l 262 844 l 400 844 q 495 779 468 844 q 500 749 500 768 l 500 727 l 495 722 l 262 722 l 262 304 q 343 138 262 178 q 457 119 393 119 q 528 22 528 91 l 528 5 l 522 0 l 422 0 q 148 195 219 0 q 137 290 137 254 l 137 1210 l 142 1215 z "},"u":{"ha":901,"x_min":137,"x_max":758,"o":"m 145 846 q 256 784 229 846 l 262 749 l 262 298 q 340 141 262 178 q 430 122 391 122 q 633 282 633 122 l 633 841 q 642 846 633 846 q 758 722 758 846 l 758 5 l 753 0 l 734 0 q 647 52 669 0 l 642 52 q 476 0 578 0 l 425 0 q 140 228 193 0 l 137 282 l 137 841 q 145 846 137 846 z "},"v":{"ha":911,"x_min":140,"x_max":774,"o":"m 140 844 l 180 844 q 335 640 290 844 l 454 274 l 457 274 q 631 784 612 758 q 739 844 678 844 l 769 844 l 772 841 l 774 841 l 503 0 l 487 0 q 378 92 412 0 l 140 844 z "},"w":{"ha":1381,"x_min":136,"x_max":1254,"o":"m 144 846 q 264 746 264 846 l 264 274 q 372 130 264 167 q 446 122 407 122 q 619 214 586 122 q 633 271 633 241 l 633 762 l 638 768 l 652 768 q 755 694 729 768 l 760 648 l 760 269 q 882 127 760 159 l 931 122 q 1132 296 1132 122 l 1132 754 q 1197 838 1132 812 q 1251 846 1220 846 l 1254 844 l 1254 288 q 1075 16 1254 90 q 966 0 1015 0 l 904 0 q 698 98 789 0 l 695 98 q 486 0 595 0 l 432 0 q 158 168 229 0 q 136 307 136 229 l 136 841 q 144 846 136 846 z "},"x":{"ha":896,"x_min":138,"x_max":759,"o":"m 640 846 l 653 846 q 756 765 736 846 l 759 727 l 759 686 q 659 429 759 510 q 759 206 759 345 l 759 5 l 753 0 l 726 0 q 637 71 663 0 l 634 92 l 634 165 q 564 345 634 308 q 474 369 511 369 l 417 369 q 281 290 320 369 q 262 206 262 254 l 262 5 l 257 0 l 233 0 q 138 79 163 0 l 138 239 q 235 431 138 339 l 235 434 q 138 632 138 512 l 138 838 l 143 844 l 170 844 q 262 746 250 844 l 262 667 q 357 502 262 533 q 406 494 387 494 l 477 494 q 618 578 581 494 q 634 670 634 623 l 634 841 l 640 846 z "},"y":{"ha":853,"x_min":139,"x_max":726,"o":"m 146 843 q 257 725 257 843 l 257 319 q 357 165 257 203 l 411 158 q 591 233 547 158 q 608 302 608 268 l 608 838 l 614 843 l 627 843 q 719 784 694 843 q 726 741 726 760 l 726 -9 q 663 -209 726 -145 q 475 -291 577 -291 l 227 -291 q 139 -199 153 -291 l 139 -180 l 144 -176 l 424 -176 q 608 -32 608 -176 l 608 81 l 604 81 q 452 43 538 43 l 418 43 q 159 199 229 43 q 139 302 139 252 l 139 838 q 146 843 139 843 z "},"z":{"ha":886,"x_min":137,"x_max":758,"o":"m 142 846 l 636 846 q 755 770 732 846 l 758 743 q 292 125 758 669 l 292 122 l 658 122 q 755 30 755 108 l 755 5 l 750 0 l 235 0 q 137 79 157 0 l 137 109 l 609 722 l 254 722 q 137 798 162 722 l 137 841 l 142 846 z "},"{":{"ha":714,"x_min":136,"x_max":584,"o":"m 486 1126 l 578 1126 l 584 1120 q 500 1004 584 1037 q 329 882 375 1004 q 321 803 321 838 l 321 656 q 299 562 321 609 q 321 467 321 526 l 321 328 q 427 138 321 178 q 532 109 513 120 q 584 3 584 68 l 581 0 l 530 0 q 218 155 280 0 q 196 258 196 205 l 196 464 q 139 502 196 502 l 136 505 l 136 621 q 174 629 136 627 q 196 659 196 641 l 196 873 q 356 1104 196 1027 q 486 1126 427 1126 z "},"|":{"ha":398,"x_min":139,"x_max":264,"o":"m 144 1207 l 177 1207 q 256 1145 230 1207 q 264 1104 264 1132 l 264 5 l 258 0 l 245 0 q 139 119 139 0 l 139 1202 l 144 1207 z "},"}":{"ha":716,"x_min":132,"x_max":579,"o":"m 237 1126 q 490 990 410 1126 q 522 838 522 938 l 522 654 q 579 624 522 629 l 579 507 q 533 494 579 503 q 522 472 522 482 l 522 277 q 343 19 522 81 q 199 0 287 0 l 137 0 l 134 3 l 132 3 q 208 119 132 85 q 340 168 307 136 q 395 309 395 220 l 395 437 q 419 564 395 532 q 395 700 395 591 l 395 819 q 278 993 395 954 q 167 1036 167 1013 q 132 1123 132 1072 l 134 1126 l 237 1126 z "},"~":{"ha":688,"x_min":64,"x_max":626,"o":"m 626 595 l 626 490 q 543 424 583 441 q 465 406 503 406 q 344 439 424 406 q 224 472 264 472 q 152 453 190 472 q 64 377 113 434 l 64 483 q 147 550 107 532 q 224 568 187 568 q 348 534 268 568 q 465 500 427 500 q 538 519 500 500 q 626 595 576 538 z "},"¡":{"ha":456,"x_min":0,"x_max":0,"o":""},"¢":{"ha":772,"x_min":0,"x_max":0,"o":""},"£":{"ha":688,"x_min":52,"x_max":635,"o":"m 507 913 q 399 935 458 935 l 397 935 q 269 866 330 935 q 212 703 212 803 q 212 682 212 692 q 248 497 212 591 l 492 497 l 492 456 l 266 456 q 287 416 275 436 q 311 322 311 373 q 201 68 311 213 l 473 68 q 602 157 562 68 l 635 157 l 565 0 l 77 0 l 78 34 q 205 317 205 195 q 182 414 205 370 q 161 456 170 436 l 52 456 l 52 497 l 143 497 q 104 669 104 594 q 188 904 104 822 q 395 986 271 986 l 398 986 q 524 977 449 986 q 599 954 599 967 l 599 844 l 559 844 q 507 913 556 886 z "},"¤":{"ha":688,"x_min":83,"x_max":604,"o":"m 237 380 q 304 341 265 353 q 344 336 324 336 q 383 341 363 336 q 450 380 422 353 q 489 447 477 408 q 495 486 495 467 q 489 526 495 506 q 450 593 477 565 q 382 631 422 620 q 343 637 363 637 q 304 631 323 637 q 237 593 264 619 q 199 526 211 566 q 193 486 193 506 q 199 448 193 467 q 237 380 210 408 m 163 612 l 83 692 l 137 747 l 217 667 q 284 699 247 688 q 345 708 314 708 q 401 700 372 708 q 470 667 439 688 l 550 747 l 604 692 l 525 613 q 557 544 546 582 q 566 486 566 515 q 557 429 566 458 q 525 359 546 391 l 604 280 l 550 225 l 470 305 q 401 273 439 283 q 344 264 373 264 q 286 273 315 264 q 217 305 248 283 l 137 225 l 83 280 l 163 359 q 130 429 141 391 q 122 486 122 458 q 131 545 122 516 q 163 612 142 583 z "},"¥":{"ha":856,"x_min":5,"x_max":864,"o":"m 371 153 l 370 317 q 369 340 370 330 q 366 362 368 351 l 37 363 q 23 367 28 363 q 18 380 18 372 q 23 393 18 389 q 37 397 27 397 l 354 397 l 272 514 l 39 514 q 23 518 27 514 q 18 530 18 522 q 22 544 18 540 q 37 547 26 547 l 245 547 q 172 652 216 586 q 18 786 83 786 q 9 790 14 786 q 5 798 5 793 q 13 816 5 810 q 35 822 20 822 q 118 817 53 822 q 229 811 183 811 l 268 811 l 289 811 q 317 807 311 811 q 322 789 322 802 q 312 779 322 783 q 286 775 302 775 q 274 777 282 775 q 261 778 265 778 q 236 771 245 778 q 227 754 227 765 q 238 719 227 742 q 269 667 249 696 l 376 517 q 399 481 385 504 q 447 433 427 433 q 458 437 453 433 q 468 447 463 440 l 656 715 q 665 733 661 724 q 668 750 668 743 q 661 768 668 762 q 636 778 654 774 q 608 781 626 779 q 576 798 576 783 q 582 813 576 808 q 599 818 587 818 q 609 817 601 818 q 682 812 647 812 l 777 812 q 821 813 797 812 q 846 814 844 814 q 858 811 853 814 q 864 803 863 808 q 838 780 864 784 q 820 777 826 778 q 720 697 777 766 q 712 687 715 691 l 597 547 l 817 547 q 833 543 827 547 q 839 532 839 539 q 835 518 839 522 q 819 514 831 514 l 571 514 q 506 438 540 475 q 470 397 471 400 l 817 397 q 834 394 829 397 q 839 382 839 390 q 834 368 839 372 q 819 363 829 363 l 460 363 q 459 342 460 355 q 458 322 458 329 l 460 176 q 464 75 460 99 q 477 45 467 50 q 550 32 498 33 q 603 11 603 31 q 596 -3 603 3 q 579 -8 589 -8 q 555 -5 578 -8 q 511 -3 532 -3 q 370 -5 450 -3 q 273 -8 290 -8 q 246 -5 252 -8 q 240 5 240 -3 q 245 18 240 14 q 271 26 251 22 q 288 30 277 28 q 350 52 338 41 q 366 83 361 60 q 371 153 371 106 z "},"¦":{"ha":688,"x_min":290,"x_max":398,"o":"m 290 252 l 398 252 l 398 -283 l 290 -283 l 290 252 m 290 1070 l 398 1070 l 398 535 l 290 535 l 290 1070 z "},"§":{"ha":688,"x_min":115,"x_max":572,"o":"m 370 218 q 435 254 408 229 q 485 366 485 298 q 484 373 485 370 l 483 373 q 480 391 482 382 q 404 477 465 433 q 318 497 363 497 q 233 467 265 497 q 201 387 201 437 q 370 218 201 304 m 316 -235 q 441 -188 393 -231 q 490 -76 490 -144 q 276 111 490 9 q 157 204 193 155 q 121 324 121 254 q 182 485 121 425 q 297 541 227 529 l 270 553 q 151 646 186 597 q 115 766 115 696 q 176 927 115 867 q 322 985 231 981 q 334 986 328 986 l 336 986 q 446 975 380 986 q 512 947 512 964 l 512 815 l 477 815 q 423 905 474 870 q 322 939 376 937 l 312 939 q 227 909 259 939 q 195 829 195 879 q 390 647 195 740 q 529 550 491 602 q 566 422 566 498 q 498 231 566 307 q 431 188 466 205 q 535 108 504 150 q 572 -19 572 56 q 504 -211 572 -135 q 316 -282 420 -280 l 316 -281 q 307 -282 312 -282 l 305 -282 q 195 -271 260 -282 q 129 -243 129 -260 l 129 -111 l 163 -111 q 218 -201 167 -166 q 316 -235 264 -231 z "},"¨":{"ha":694,"x_min":142,"x_max":536,"o":"m 151 874 l 199 923 q 216 931 208 931 q 235 922 224 931 l 281 872 q 288 855 288 863 q 280 837 288 846 l 233 786 q 216 774 222 774 q 199 783 207 774 l 148 841 q 142 857 142 849 q 151 874 142 865 m 399 874 l 447 923 q 464 931 456 931 q 482 922 471 931 l 529 872 q 536 855 536 863 q 528 838 536 846 l 481 786 q 464 774 469 774 q 447 783 454 774 l 395 842 q 389 857 389 849 q 399 874 389 865 z "},"©":{"ha":1135,"x_min":68,"x_max":1067,"o":"m 570 987 q 760 949 668 987 q 922 840 851 911 q 1029 679 991 772 q 1067 487 1067 586 q 1029 296 1067 387 q 919 133 991 204 q 757 25 848 62 q 565 -12 666 -12 q 376 25 466 -12 q 215 134 287 63 q 105 295 143 205 q 68 487 68 386 q 105 679 68 587 q 214 840 143 770 q 375 949 283 911 q 570 987 468 987 m 242 812 q 143 663 178 747 q 109 487 109 579 q 143 311 109 394 q 243 163 178 229 q 392 63 310 98 q 566 28 474 28 q 742 63 659 28 q 890 161 825 97 q 991 312 956 228 q 1027 487 1027 395 q 991 663 1027 578 q 893 812 956 748 q 744 912 828 877 q 569 947 660 947 q 391 912 476 947 q 242 812 307 877 m 587 151 q 408 197 490 151 q 281 323 325 243 q 238 488 238 402 q 282 653 238 573 q 410 778 327 733 q 582 823 492 823 q 633 819 608 823 q 684 805 658 814 q 690 804 688 804 q 708 825 703 804 l 736 825 l 785 690 l 755 690 q 667 774 720 754 q 567 792 618 792 l 557 792 q 444 744 498 787 q 361 624 389 701 q 339 499 339 563 q 340 465 339 482 q 388 313 348 383 q 489 210 427 243 q 602 182 538 183 q 733 220 686 182 q 781 305 781 258 l 817 305 l 817 237 q 751 179 817 206 q 587 151 686 151 z "},"ª":{"ha":439,"x_min":0,"x_max":0,"o":""},"«":{"ha":640,"x_min":118,"x_max":572,"o":"m 118 325 l 350 530 l 359 530 l 359 505 l 220 325 l 359 144 l 359 119 l 350 119 l 118 325 m 330 325 l 562 530 l 572 530 l 572 505 l 433 325 l 572 144 l 572 119 l 562 119 l 330 325 z "},"¬":{"ha":688,"x_min":59,"x_max":629,"o":"m 59 520 l 629 520 l 629 187 l 628 186 l 562 186 l 562 452 l 59 452 l 59 520 z "},"®":{"ha":1135,"x_min":68,"x_max":1067,"o":"m 509 745 l 509 492 l 511 486 q 549 431 527 448 q 587 416 569 416 l 591 416 q 633 443 612 419 q 665 509 654 466 q 673 578 673 543 q 673 597 673 587 q 654 681 670 642 q 615 733 637 720 q 572 745 593 745 l 509 745 m 667 391 l 723 312 q 825 216 791 216 l 848 216 l 848 182 l 613 182 l 613 216 l 644 216 q 664 231 664 216 q 617 309 664 251 l 566 378 q 509 406 538 378 l 509 298 q 534 216 509 216 l 570 216 l 570 182 l 355 182 l 355 216 l 385 216 q 410 298 410 216 l 410 663 q 385 745 410 745 l 355 745 l 355 793 l 597 793 q 682 764 640 792 q 744 687 722 736 q 766 584 766 637 q 745 482 766 531 q 667 391 723 433 m 570 987 q 760 949 668 987 q 922 840 851 911 q 1029 679 991 772 q 1067 487 1067 586 q 1029 296 1067 387 q 919 133 991 204 q 757 25 848 62 q 565 -12 666 -12 q 376 25 466 -12 q 215 134 287 63 q 105 295 143 205 q 68 487 68 386 q 105 679 68 587 q 214 840 143 770 q 375 949 283 911 q 570 987 468 987 m 242 812 q 143 663 178 747 q 109 487 109 579 q 143 311 109 394 q 243 163 178 229 q 392 63 310 98 q 566 28 474 28 q 742 63 659 28 q 890 161 825 97 q 991 312 956 228 q 1027 487 1027 395 q 991 663 1027 578 q 893 812 956 748 q 744 912 828 877 q 569 947 660 947 q 391 912 476 947 q 242 812 307 877 z "},"¯":{"ha":454,"x_min":0,"x_max":0,"o":""},"°":{"ha":457,"x_min":41,"x_max":418,"o":"m 230 930 q 130 889 172 930 q 88 789 88 848 q 130 689 88 730 q 230 648 171 648 q 330 689 289 648 q 370 789 370 730 q 329 889 370 848 q 230 930 288 930 m 230 978 q 363 923 308 978 q 418 789 418 867 q 362 656 418 712 q 229 601 307 601 q 95 656 149 601 q 41 789 41 711 q 96 923 41 868 q 230 978 151 978 z "},"±":{"ha":688,"x_min":0,"x_max":0,"o":""},"²":{"ha":688,"x_min":0,"x_max":0,"o":""},"³":{"ha":688,"x_min":0,"x_max":0,"o":""},"´":{"ha":694,"x_min":214,"x_max":527,"o":"m 412 932 q 449 964 435 956 q 477 972 463 972 q 513 959 499 972 q 527 924 527 945 q 516 896 527 909 q 485 869 506 882 l 261 731 l 214 731 l 412 932 z "},"µ":{"ha":800,"x_min":0,"x_max":0,"o":""},"¶":{"ha":694,"x_min":63,"x_max":630,"o":"m 630 973 l 630 926 l 544 926 l 544 0 l 488 0 l 488 926 l 376 926 l 376 0 l 319 0 l 319 500 q 132 570 201 506 q 63 736 63 634 q 136 908 63 843 q 330 973 209 973 l 630 973 z "},"·":{"ha":345,"x_min":87,"x_max":257,"o":"m 98 502 l 154 559 q 174 568 164 568 q 195 557 182 568 l 249 499 q 257 479 257 488 q 248 458 257 469 l 193 399 q 174 385 180 385 q 154 395 163 385 l 94 463 q 87 481 87 472 q 98 502 87 491 z "},"¸":{"ha":694,"x_min":244,"x_max":521,"o":"m 244 -197 q 347 -232 302 -232 q 411 -217 392 -232 q 431 -172 431 -203 q 397 -129 431 -142 q 328 -118 370 -118 q 305 -119 317 -118 l 338 0 l 380 0 l 355 -71 q 397 -67 377 -68 q 488 -95 456 -67 q 521 -172 521 -122 q 481 -253 521 -223 q 372 -283 441 -283 q 244 -262 298 -283 l 244 -197 z "},"¹":{"ha":688,"x_min":0,"x_max":0,"o":""},"º":{"ha":487,"x_min":0,"x_max":0,"o":""},"»":{"ha":640,"x_min":68,"x_max":522,"o":"m 78 119 l 68 119 l 68 144 l 208 325 l 68 505 l 68 530 l 78 530 l 310 325 l 78 119 m 290 119 l 281 119 l 281 144 l 420 325 l 281 505 l 281 530 l 290 530 l 522 325 l 290 119 z "},"¼":{"ha":1158,"x_min":0,"x_max":0,"o":""},"½":{"ha":1332,"x_min":0,"x_max":0,"o":""},"¾":{"ha":1158,"x_min":0,"x_max":0,"o":""},"¿":{"ha":507,"x_min":0,"x_max":0,"o":""},"À":{"ha":1044,"x_min":0,"x_max":0,"o":""},"Á":{"ha":1044,"x_min":0,"x_max":0,"o":""},"Â":{"ha":1044,"x_min":0,"x_max":0,"o":""},"Ã":{"ha":1044,"x_min":0,"x_max":0,"o":""},"Ä":{"ha":1044,"x_min":0,"x_max":0,"o":""},"Å":{"ha":1044,"x_min":0,"x_max":0,"o":""},"Æ":{"ha":1436,"x_min":0,"x_max":0,"o":""},"Ç":{"ha":949,"x_min":0,"x_max":0,"o":""},"È":{"ha":781,"x_min":0,"x_max":0,"o":""},"É":{"ha":781,"x_min":0,"x_max":0,"o":""},"Ê":{"ha":781,"x_min":0,"x_max":0,"o":""},"Ë":{"ha":781,"x_min":0,"x_max":0,"o":""},"Ì":{"ha":446,"x_min":0,"x_max":0,"o":""},"Í":{"ha":446,"x_min":0,"x_max":0,"o":""},"Î":{"ha":446,"x_min":0,"x_max":0,"o":""},"Ï":{"ha":446,"x_min":0,"x_max":0,"o":""},"Ð":{"ha":1029,"x_min":0,"x_max":0,"o":""},"Ñ":{"ha":1054,"x_min":0,"x_max":0,"o":""},"Ò":{"ha":1095,"x_min":0,"x_max":0,"o":""},"Ó":{"ha":1095,"x_min":0,"x_max":0,"o":""},"Ô":{"ha":1095,"x_min":0,"x_max":0,"o":""},"Õ":{"ha":1095,"x_min":0,"x_max":0,"o":""},"Ö":{"ha":1095,"x_min":0,"x_max":0,"o":""},"×":{"ha":688,"x_min":109,"x_max":578,"o":"m 344 419 l 176 252 l 109 319 l 277 486 l 109 654 l 176 721 l 344 553 l 512 721 l 578 654 l 411 486 l 578 319 l 511 252 l 344 419 z "},"Ø":{"ha":1095,"x_min":0,"x_max":0,"o":""},"Ù":{"ha":1018,"x_min":0,"x_max":0,"o":""},"Ú":{"ha":1018,"x_min":0,"x_max":0,"o":""},"Û":{"ha":1018,"x_min":0,"x_max":0,"o":""},"Ü":{"ha":1018,"x_min":0,"x_max":0,"o":""},"Ý":{"ha":836,"x_min":0,"x_max":0,"o":""},"Þ":{"ha":760,"x_min":0,"x_max":0,"o":""},"ß":{"ha":848,"x_min":0,"x_max":0,"o":""},"à":{"ha":625,"x_min":0,"x_max":0,"o":""},"á":{"ha":625,"x_min":0,"x_max":0,"o":""},"â":{"ha":625,"x_min":0,"x_max":0,"o":""},"ã":{"ha":625,"x_min":0,"x_max":0,"o":""},"ä":{"ha":625,"x_min":0,"x_max":0,"o":""},"å":{"ha":625,"x_min":0,"x_max":0,"o":""},"æ":{"ha":986,"x_min":0,"x_max":0,"o":""},"ç":{"ha":614,"x_min":0,"x_max":0,"o":""},"è":{"ha":616,"x_min":0,"x_max":0,"o":""},"é":{"ha":616,"x_min":0,"x_max":0,"o":""},"ê":{"ha":616,"x_min":0,"x_max":0,"o":""},"ë":{"ha":616,"x_min":0,"x_max":0,"o":""},"ì":{"ha":349,"x_min":0,"x_max":0,"o":""},"í":{"ha":349,"x_min":0,"x_max":0,"o":""},"î":{"ha":349,"x_min":0,"x_max":0,"o":""},"ï":{"ha":349,"x_min":0,"x_max":0,"o":""},"ð":{"ha":772,"x_min":0,"x_max":0,"o":""},"ñ":{"ha":751,"x_min":0,"x_max":0,"o":""},"ò":{"ha":685,"x_min":0,"x_max":0,"o":""},"ó":{"ha":685,"x_min":0,"x_max":0,"o":""},"ô":{"ha":685,"x_min":0,"x_max":0,"o":""},"õ":{"ha":685,"x_min":0,"x_max":0,"o":""},"ö":{"ha":685,"x_min":0,"x_max":0,"o":""},"÷":{"ha":688,"x_min":59,"x_max":629,"o":"m 59 439 l 59 534 l 628 534 l 629 533 l 629 439 l 59 439 m 270 277 l 326 334 q 345 343 336 343 q 366 332 354 343 l 420 274 q 429 254 429 263 q 419 233 429 244 l 365 174 q 345 160 351 160 q 326 170 334 160 l 266 238 q 259 256 259 247 q 270 277 259 266 m 270 747 l 326 804 q 345 813 336 813 q 366 802 354 813 l 420 744 q 429 724 429 733 q 419 703 429 714 l 365 644 q 345 630 351 630 q 326 640 334 630 l 266 708 q 259 726 259 717 q 270 747 259 736 z "},"ø":{"ha":685,"x_min":0,"x_max":0,"o":""},"ù":{"ha":718,"x_min":0,"x_max":0,"o":""},"ú":{"ha":718,"x_min":0,"x_max":0,"o":""},"û":{"ha":718,"x_min":0,"x_max":0,"o":""},"ü":{"ha":718,"x_min":0,"x_max":0,"o":""},"ý":{"ha":589,"x_min":0,"x_max":0,"o":""},"þ":{"ha":685,"x_min":0,"x_max":0,"o":""},"ÿ":{"ha":589,"x_min":0,"x_max":0,"o":""},"ı":{"ha":349,"x_min":13,"x_max":321,"o":"m 222 151 q 290 34 222 34 l 321 34 l 321 0 l 22 0 l 22 34 l 53 34 q 121 151 121 34 l 121 444 q 45 496 121 496 l 13 496 l 13 526 q 190 650 163 573 l 222 650 l 222 151 z "},"ˆ":{"ha":694,"x_min":150,"x_max":545,"o":"m 150 732 l 307 972 l 387 972 l 545 732 l 505 732 l 347 878 l 189 732 l 150 732 z "},"ˇ":{"ha":694,"x_min":150,"x_max":545,"o":"m 150 972 l 189 972 l 347 827 l 505 972 l 545 972 l 387 731 l 307 731 l 150 972 z "},"ˉ":{"ha":694,"x_min":172,"x_max":522,"o":"m 172 810 l 172 895 l 522 895 l 522 810 l 172 810 z "},"˘":{"ha":694,"x_min":149,"x_max":545,"o":"m 149 915 l 183 915 q 234 842 195 865 q 347 819 273 819 q 460 842 421 819 q 510 915 498 865 l 545 915 q 481 778 531 825 q 347 732 431 732 q 214 779 264 732 q 149 915 163 825 z "},"˙":{"ha":694,"x_min":277,"x_max":422,"o":"m 286 874 l 333 923 q 342 929 337 927 q 351 931 347 931 q 360 929 355 931 q 368 923 364 927 l 416 871 q 421 865 420 869 q 422 855 422 861 q 420 845 422 849 q 415 837 419 841 l 367 785 q 356 776 359 778 q 351 774 353 774 q 340 776 345 774 q 333 782 336 778 l 282 841 q 278 847 279 844 q 277 857 277 851 q 279 865 277 861 q 286 874 281 869 z "},"˚":{"ha":694,"x_min":227,"x_max":468,"o":"m 279 852 q 298 804 279 824 q 347 785 318 785 q 395 804 375 785 q 414 852 414 824 q 394 900 414 880 q 347 920 374 920 q 299 900 319 920 q 279 852 279 880 m 227 852 q 262 938 227 903 q 347 972 296 972 q 433 938 398 972 q 468 852 468 903 q 433 767 468 802 q 347 732 398 732 q 262 767 296 732 q 227 852 227 802 z "},"˛":{"ha":694,"x_min":250,"x_max":500,"o":"m 434 0 q 359 -81 386 -42 q 332 -157 332 -120 q 351 -208 332 -189 q 400 -227 369 -227 q 447 -217 427 -227 q 481 -184 467 -206 l 500 -195 q 438 -260 475 -237 q 357 -283 401 -283 q 280 -259 310 -283 q 250 -198 250 -235 q 291 -92 250 -146 q 401 0 332 -37 l 434 0 z "},"˜":{"ha":694,"x_min":159,"x_max":548,"o":"m 548 937 q 502 833 534 867 q 416 798 469 798 l 413 798 q 336 814 379 798 q 259 830 292 830 q 218 816 233 830 q 195 768 203 802 l 159 768 q 205 875 172 840 q 292 911 238 911 q 369 895 323 910 q 445 879 412 879 l 448 879 q 487 892 472 879 q 511 937 502 906 l 548 937 z "},"˝":{"ha":694,"x_min":147,"x_max":547,"o":"m 147 732 l 245 917 q 276 960 261 947 q 307 972 290 972 q 340 959 326 972 q 353 927 353 945 q 346 903 353 916 q 326 876 339 890 l 186 732 l 147 732 m 340 732 l 438 917 q 469 960 454 947 q 500 972 484 972 q 533 959 519 972 q 547 927 547 945 q 539 903 547 916 q 519 876 532 890 l 380 732 l 340 732 z "},"–":{"ha":751,"x_min":38,"x_max":713,"o":"m 38 284 l 38 366 l 713 366 l 713 284 l 38 284 z "},"—":{"ha":1389,"x_min":0,"x_max":1389,"o":"m 0 284 l 0 366 l 1389 366 l 1389 284 l 0 284 z "},"‘":{"ha":378,"x_min":126,"x_max":297,"o":"m 216 689 q 156 733 186 689 q 126 836 126 778 q 174 990 126 910 q 269 1069 222 1069 l 269 1040 q 210 911 219 1011 q 297 802 210 831 l 297 774 l 216 689 z "},"’":{"ha":378,"x_min":81,"x_max":252,"o":"m 161 1069 q 221 1025 191 1069 q 252 922 252 981 q 203 769 252 848 q 109 689 155 689 l 109 718 q 168 847 159 747 q 81 956 168 928 l 81 985 l 161 1069 z "},"‚":{"ha":378,"x_min":81,"x_max":252,"o":"m 161 191 q 221 146 191 191 q 252 43 252 102 q 203 -110 252 -31 q 109 -190 155 -190 l 109 -161 q 168 -32 159 -132 q 81 77 168 49 l 81 106 l 161 191 z "},"“":{"ha":617,"x_min":126,"x_max":536,"o":"m 216 689 q 156 733 186 689 q 126 836 126 778 q 174 990 126 910 q 269 1069 222 1069 l 269 1040 q 210 911 219 1011 q 297 802 210 831 l 297 774 l 216 689 m 456 689 q 396 733 426 689 q 366 836 366 778 q 414 990 366 910 q 508 1069 462 1069 l 508 1040 q 449 911 458 1011 q 536 802 449 831 l 536 774 l 456 689 z "},"”":{"ha":617,"x_min":81,"x_max":491,"o":"m 161 1069 q 221 1025 191 1069 q 252 922 252 981 q 203 769 252 848 q 109 689 155 689 l 109 718 q 168 847 159 747 q 81 956 168 928 l 81 985 l 161 1069 m 401 1069 q 461 1025 431 1069 q 491 922 491 981 q 443 769 491 848 q 349 689 395 689 l 349 718 q 408 847 398 747 q 320 956 408 928 l 320 985 l 401 1069 z "},"„":{"ha":617,"x_min":81,"x_max":491,"o":"m 161 191 q 221 146 191 191 q 252 43 252 102 q 203 -110 252 -31 q 109 -190 155 -190 l 109 -161 q 168 -32 159 -132 q 81 77 168 49 l 81 106 l 161 191 m 401 191 q 461 146 431 191 q 491 43 491 102 q 443 -110 491 -31 q 349 -190 395 -190 l 349 -161 q 408 -32 398 -132 q 320 77 408 49 l 320 106 l 401 191 z "},"†":{"ha":688,"x_min":48,"x_max":640,"o":"m 330 693 q 293 814 324 759 q 254 901 254 882 q 279 955 254 935 q 344 975 303 975 q 408 956 382 975 q 433 907 433 937 q 396 814 433 886 q 359 693 365 757 q 479 730 424 699 q 566 768 547 768 q 620 744 600 768 q 640 679 640 720 q 622 615 640 640 q 572 589 603 589 q 480 627 551 589 q 359 665 422 658 q 433 477 364 546 q 357 -183 361 165 l 332 -183 q 254 477 328 165 q 330 665 323 546 q 209 628 264 659 q 121 589 140 589 q 68 614 88 589 q 48 679 48 638 q 67 743 48 718 q 115 768 85 768 q 208 730 137 768 q 330 693 266 699 z "},"‡":{"ha":688,"x_min":47,"x_max":640,"o":"m 358 126 q 479 165 422 134 q 572 202 550 202 q 621 177 602 202 q 640 113 640 151 q 619 47 640 72 q 566 23 599 23 q 478 62 547 23 q 358 98 423 93 q 395 -23 364 35 q 433 -116 433 -94 q 407 -164 433 -146 q 343 -183 382 -183 q 278 -163 302 -183 q 254 -110 254 -143 q 292 -22 254 -91 q 329 98 323 33 q 208 61 265 92 q 115 23 136 23 q 66 48 85 23 q 47 113 47 74 q 67 178 47 153 q 121 202 87 202 q 208 163 140 202 q 329 126 264 133 q 254 396 323 279 q 329 665 323 512 q 208 628 264 659 q 121 589 140 589 q 67 614 87 589 q 47 679 47 638 q 66 743 47 718 q 115 768 85 768 q 208 730 136 768 q 329 693 265 699 q 292 814 323 759 q 254 901 254 882 q 278 955 254 935 q 343 975 302 975 q 407 956 382 975 q 433 907 433 937 q 395 814 433 886 q 358 693 364 757 q 478 730 423 699 q 566 768 547 768 q 619 744 599 768 q 640 679 640 720 q 621 615 640 640 q 572 589 602 589 q 479 627 550 589 q 358 665 422 658 q 433 396 363 512 q 358 126 363 279 z "},"•":{"ha":694,"x_min":146,"x_max":548,"o":"m 146 487 q 205 629 146 570 q 348 687 264 687 q 489 628 431 687 q 548 487 548 570 q 489 345 548 404 q 347 286 429 286 q 205 345 263 286 q 146 487 146 404 z "},"…":{"ha":1389,"x_min":87,"x_max":1183,"o":"m 98 113 l 154 170 q 174 180 164 180 q 195 169 182 180 l 249 111 q 257 91 257 100 q 248 70 257 81 l 193 10 q 174 -3 180 -3 q 154 6 163 -3 l 94 75 q 87 92 87 83 q 98 113 87 102 m 562 113 l 617 170 q 637 180 627 180 q 658 169 646 180 l 712 111 q 720 91 720 100 q 711 70 720 81 l 656 10 q 637 -3 643 -3 q 617 6 626 -3 l 557 75 q 551 92 551 83 q 562 113 551 102 m 1025 113 l 1080 170 q 1100 180 1090 180 q 1121 169 1109 180 l 1175 111 q 1183 91 1183 100 q 1174 70 1183 81 l 1120 10 q 1100 -3 1106 -3 q 1080 6 1089 -3 l 1021 75 q 1014 92 1014 83 q 1025 113 1014 102 z "},"‹":{"ha":428,"x_min":118,"x_max":359,"o":"m 118 325 l 350 530 l 359 530 l 359 505 l 220 325 l 359 144 l 359 119 l 350 119 l 118 325 z "},"›":{"ha":428,"x_min":68,"x_max":310,"o":"m 78 119 l 68 119 l 68 144 l 208 325 l 68 505 l 68 530 l 78 530 l 310 325 l 78 119 z "},"⁄":{"ha":232,"x_min":-232,"x_max":463,"o":"m -232 -20 l 406 971 l 463 971 l -174 -20 l -232 -20 z "},"₣":{"ha":688,"x_min":33,"x_max":723,"o":"m 168 242 l 36 242 l 36 283 l 168 283 l 168 779 q 98 939 168 939 l 33 939 l 33 972 l 653 972 l 723 816 l 690 816 q 561 939 650 939 l 347 939 q 277 779 277 939 l 277 541 l 522 541 q 590 583 590 541 l 590 623 l 624 623 l 624 391 l 590 391 l 590 431 q 522 473 590 473 l 277 473 l 277 283 l 409 283 l 409 242 l 277 242 l 277 193 q 347 34 277 34 l 412 34 l 412 0 l 33 0 l 33 34 l 98 34 q 168 193 168 34 l 168 242 z "},"₤":{"ha":688,"x_min":52,"x_max":635,"o":"m 507 913 q 399 935 458 935 l 397 935 q 269 866 330 935 q 212 703 212 803 q 212 682 212 692 q 235 538 212 610 l 492 538 l 492 497 l 248 497 q 266 456 256 477 l 505 456 l 505 416 l 287 416 q 311 322 311 373 q 201 68 311 213 l 473 68 q 602 157 562 68 l 635 157 l 565 0 l 77 0 l 78 34 q 205 317 205 195 q 182 414 205 370 l 180 416 l 64 416 l 64 456 l 161 456 q 143 497 151 477 l 52 497 l 52 538 l 128 538 q 104 669 104 610 q 188 904 104 822 q 398 986 271 986 q 524 977 449 986 q 599 954 599 967 l 599 844 l 559 844 q 507 913 556 886 z "},"₧":{"ha":1375,"x_min":33,"x_max":1334,"o":"m 277 939 l 277 490 q 282 478 279 484 q 355 374 310 409 q 434 345 394 345 q 447 345 441 345 q 533 396 493 351 q 592 516 573 441 q 607 637 607 575 q 606 669 607 654 q 573 818 602 748 q 499 916 544 887 q 423 939 461 939 q 409 939 416 939 l 277 939 m 1015 616 l 893 616 l 893 151 q 916 71 893 96 q 971 45 935 50 l 923 176 l 956 176 q 1034 58 994 88 q 1120 28 1072 28 l 1124 28 q 1227 64 1187 28 q 1267 156 1267 100 q 1091 309 1267 225 q 994 385 1023 345 q 964 484 964 426 q 1014 615 964 566 l 1015 616 m 705 617 q 672 486 700 549 q 576 365 638 408 q 448 322 515 322 q 318 366 380 322 q 277 400 296 380 l 277 193 q 347 34 277 34 l 412 34 l 412 0 l 33 0 l 33 34 l 98 34 q 168 193 168 34 l 168 779 q 98 939 168 939 l 33 939 l 33 972 l 452 972 q 574 930 514 971 q 671 810 636 888 q 706 650 705 734 l 713 650 q 859 890 859 650 l 893 890 l 893 650 l 1069 650 q 1143 663 1097 663 l 1145 663 q 1235 654 1181 663 q 1289 631 1289 645 l 1289 524 l 1261 524 q 1216 597 1258 568 q 1126 625 1175 625 q 1056 601 1082 625 q 1030 535 1030 576 q 1190 386 1030 462 q 1303 306 1272 349 q 1334 202 1334 264 q 1278 45 1334 107 q 1123 -13 1208 -12 q 1052 -5 1084 -13 q 1014 -1 1033 -1 q 989 -3 1002 -1 q 949 -7 970 -7 q 832 32 865 -7 q 793 151 798 71 l 792 151 l 792 617 l 705 617 z "},"€":{"ha":688,"x_min":-30,"x_max":724,"o":"m 95 252 q 43 443 53 344 l -30 443 l -18 484 l 41 484 l 41 503 q 41 524 41 514 l -7 524 l 5 565 l 44 565 q 96 755 54 663 q 249 941 151 876 q 451 1006 347 1006 q 510 1001 480 1006 q 566 981 537 994 q 576 977 571 977 q 600 1008 590 977 l 627 1008 l 684 817 l 657 817 q 564 937 624 907 q 509 959 534 952 l 509 961 q 440 972 475 972 q 417 970 429 972 q 264 893 336 962 q 157 708 192 825 q 131 565 136 637 l 610 565 l 598 524 l 129 524 q 130 484 129 504 l 587 484 l 576 443 l 134 443 q 190 241 145 336 q 321 81 240 134 q 467 34 390 35 q 641 96 593 36 q 691 221 691 157 l 724 221 l 724 124 q 648 38 724 77 q 467 0 577 1 q 247 66 345 0 q 95 252 149 133 z "},"№":{"ha":1540,"x_min":0,"x_max":0,"o":""},"™":{"ha":1015,"x_min":0,"x_max":0,"o":""},"∂":{"ha":688,"x_min":52,"x_max":635,"o":"m 157 364 q 161 311 157 336 q 202 155 170 228 q 283 43 235 81 q 370 7 326 7 q 378 7 374 7 q 465 55 426 11 q 519 177 504 100 q 530 278 530 227 q 527 336 530 307 q 485 493 517 418 q 404 605 452 567 q 317 639 359 639 l 309 639 q 224 592 263 635 q 168 471 184 548 q 157 364 157 414 m 635 323 q 597 153 635 234 q 489 28 559 73 q 344 -17 420 -17 q 198 28 268 -17 q 91 153 129 73 q 52 323 52 234 q 92 494 52 412 q 201 619 131 575 q 344 663 271 663 q 488 619 418 663 q 524 591 507 607 q 366 847 467 751 q 144 952 264 943 l 144 989 q 494 796 352 989 q 635 323 635 603 z "},"∆":{"ha":733,"x_min":4,"x_max":728,"o":"m 349 810 l 73 83 l 616 83 l 349 810 m 371 972 l 728 0 l 4 0 l 371 972 z "},"∏":{"ha":1027,"x_min":33,"x_max":995,"o":"m 347 939 q 277 779 277 939 l 277 -90 q 347 -249 277 -249 l 412 -249 l 412 -283 l 33 -283 l 33 -249 l 98 -249 q 168 -90 168 -249 l 168 779 q 98 939 168 939 l 33 939 l 33 972 l 995 972 l 995 939 l 929 939 q 860 779 860 939 l 860 -90 q 929 -249 860 -249 l 995 -249 l 995 -283 l 615 -283 l 615 -249 l 680 -249 q 750 -90 750 -249 l 750 779 q 680 939 750 939 l 347 939 z "},"∑":{"ha":818,"x_min":81,"x_max":776,"o":"m 718 372 l 184 -248 l 614 -248 q 743 -125 703 -248 l 776 -125 l 706 -282 l 81 -282 l 81 -248 q 153 -212 123 -248 l 603 317 l 153 900 q 81 939 123 939 l 81 972 l 706 972 l 776 815 l 743 815 q 614 939 703 939 l 286 939 l 718 372 z "},"−":{"ha":688,"x_min":59,"x_max":629,"o":"m 59 439 l 59 534 l 628 534 l 629 533 l 629 439 l 59 439 z "},"√":{"ha":688,"x_min":12,"x_max":715,"o":"m 123 0 l 12 243 l 62 267 l 119 142 l 613 1139 l 715 1139 l 715 1098 l 666 1098 l 123 0 z "},"∞":{"ha":688,"x_min":45,"x_max":645,"o":"m 298 512 q 248 602 288 582 q 191 617 216 617 q 175 616 182 617 q 112 586 142 609 q 68 528 83 562 q 54 467 54 497 l 54 462 q 73 401 56 429 q 121 362 90 374 q 163 355 141 355 q 185 357 174 355 q 247 386 217 363 q 298 512 276 409 m 316 466 q 380 362 324 401 q 463 330 427 330 q 477 331 471 330 q 557 366 519 339 q 614 435 595 393 q 632 508 632 471 l 632 515 q 608 589 631 556 q 546 635 585 622 q 494 644 521 644 q 465 642 479 644 q 378 600 419 635 q 316 466 338 564 m 305 561 q 319 608 311 585 q 384 701 342 667 q 471 734 425 734 q 557 701 516 734 q 622 610 599 669 q 645 486 645 551 q 622 363 645 422 q 557 271 599 304 q 471 239 516 239 q 384 272 425 239 q 319 364 342 305 q 305 412 311 388 q 297 384 302 397 q 247 307 279 334 q 180 280 215 280 q 112 308 144 280 q 62 385 79 336 q 45 486 45 434 q 62 587 45 538 q 112 665 79 637 q 180 692 144 692 q 247 665 215 692 q 297 589 279 638 q 305 561 302 575 z "},"∫":{"ha":451,"x_min":-49,"x_max":492,"o":"m -8 -191 q -49 -171 -49 -191 l -49 -63 l -24 -63 q -1 -107 -24 -92 q 42 -121 22 -121 l 43 -121 q 121 -12 98 -121 q 148 203 142 98 l 195 701 l 201 743 q 292 1034 219 904 q 451 1164 366 1164 q 492 1144 492 1164 l 492 1036 l 467 1036 q 444 1080 467 1065 q 401 1095 420 1095 q 322 989 353 1095 q 289 743 292 884 l 239 222 q 151 -62 226 66 q -8 -191 76 -191 z "},"≈":{"ha":688,"x_min":64,"x_max":626,"o":"m 626 714 l 626 608 q 543 542 583 559 q 465 525 503 525 q 344 558 424 525 q 224 591 264 591 q 152 572 190 591 q 64 496 113 553 l 64 602 q 147 669 107 651 q 224 686 187 686 q 348 653 268 686 q 465 619 427 619 q 538 638 500 619 q 626 714 576 657 m 626 478 l 626 372 q 543 306 583 323 q 465 289 503 289 q 344 322 424 289 q 224 355 264 355 q 152 336 190 355 q 64 260 113 317 l 64 366 q 147 433 107 415 q 224 450 187 450 q 348 417 268 450 q 465 383 427 383 q 538 402 500 383 q 626 478 576 421 z "},"≤":{"ha":688,"x_min":59,"x_max":629,"o":"m 629 728 l 205 485 l 629 244 l 629 131 l 59 457 l 59 513 l 629 842 l 629 728 m 59 1 l 59 96 l 628 96 l 629 95 l 629 1 l 59 1 z "},"≥":{"ha":688,"x_min":59,"x_max":629,"o":"m 59 842 l 629 513 l 629 457 l 59 131 l 59 244 l 483 485 l 59 728 l 59 842 m 59 1 l 59 96 l 628 96 l 629 96 l 629 1 l 59 1 z "},"":{"ha":1005,"x_min":134,"x_max":873,"o":"m 395 1218 l 530 1218 l 536 1213 l 536 1183 q 438 1096 536 1122 q 275 1012 312 1096 q 259 914 259 969 l 259 773 l 264 768 l 481 768 l 487 762 l 487 749 q 406 646 487 667 l 259 646 l 262 469 l 262 5 l 256 0 q 142 65 165 0 q 134 109 134 83 l 134 922 q 346 1213 134 1153 l 395 1218 m 754 1213 l 789 1213 q 865 1156 834 1213 q 873 1118 873 1138 l 873 1017 l 868 1012 l 860 1012 q 760 1069 783 1012 q 749 1115 749 1094 l 749 1207 l 754 1213 m 754 846 l 779 846 q 868 779 845 846 q 873 743 873 766 l 873 5 l 868 0 l 860 0 q 760 57 783 0 q 749 103 749 79 l 749 841 l 754 846 z "},"":{"ha":1289,"x_min":140,"x_max":1148,"o":"m 400 1218 l 536 1218 l 541 1213 l 541 1183 q 444 1096 541 1122 q 281 1012 317 1096 q 264 914 264 969 l 264 773 l 270 768 l 487 768 l 492 762 l 492 749 q 411 646 492 667 l 264 646 l 267 469 l 267 5 l 262 0 q 148 65 170 0 q 140 109 140 83 l 140 922 q 351 1213 140 1153 l 400 1218 m 771 1215 q 869 1145 846 1215 l 874 1107 l 874 288 q 964 133 874 176 q 1083 119 997 122 q 1148 22 1148 91 l 1148 5 l 1143 0 l 1023 0 q 758 209 820 0 q 747 304 747 266 l 749 1213 l 752 1215 l 771 1215 z "}}}
